<svg xmlns="http://www.w3.org/2000/svg" version="1.1" baseProfile="tiny" width="600mm" height="600mm" viewBox="0 0 600 600"><polyline id="DataStructures--from--Primes" points="449.404 245.904 429.006 271.398 426.518 274.506 427.874 270.493 426.518 274.506 430.137 272.303"/><polyline id="BinDeps--from--URIParser" points="222.734 228.588 258.225 196.892 261.194 194.241 259.19 197.973 261.194 194.241 257.26 195.812"/><polyline id="BinDeps--from--GSL" points="303.804 164.372 291.62 171.926 288.236 174.024 290.856 170.695 288.236 174.024 292.383 173.158"/><polyline id="BinDeps--from--Cairo" points="357.998 170.142 294.522 179.804 290.587 180.403 294.304 178.371 290.587 180.403 294.74 181.236"/><polyline id="BinDeps--from--Gumbo" points="289.382 125.398 279.292 162.75 278.253 166.593 277.893 162.372 278.253 166.593 280.69 163.128"/><polyline id="BinDeps--from--HttpParser" points="288.908 238.052 279.356 203.138 278.306 199.298 280.754 202.756 278.306 199.298 277.959 203.521"/><polyline id="BinDeps--from--SHA" points="247.869 136.304 263.656 164.668 265.592 168.146 262.39 165.372 265.592 168.146 264.922 163.963"/><polyline id="JSON--from--FixedPointNumbers" points="389.585 244.826 364.799 307.619 363.337 311.322 363.451 307.087 363.337 311.322 366.147 308.151"/><polyline id="JSON--from--Nullables" points="354.659 285.897 355.869 306.194 356.106 310.168 354.423 306.28 356.106 310.168 357.316 306.108"/><polyline id="JSON--from--DataStructures" points="401.846 297.161 374.509 315.448 371.2 317.662 373.704 314.244 371.2 317.662 375.315 316.653"/><polyline id="JSON--from--OffsetArrays" points="460.546 299.089 377.316 321.617 373.473 322.657 376.937 320.218 373.473 322.657 377.694 323.015"/><polyline id="Homebrew--from--BinDeps" points="288.406 191.602 312.361 205.819 315.784 207.851 311.621 207.065 315.784 207.851 313.1 204.573"/><polyline id="Homebrew--from--JSON" points="353.13 310.613 335.279 236.84 334.342 232.97 336.687 236.499 334.342 232.97 333.87 237.181"/><polyline id="Requests--from--URIParser" points="211.754 256.74 213.214 271.576 213.604 275.538 211.772 271.718 213.604 275.538 214.656 271.434"/><polyline id="Requests--from--MbedTLS" points="245.977 251.743 227.877 275.704 225.478 278.881 226.721 274.831 225.478 278.881 229.034 276.577"/><polyline id="Requests--from--Codecs" points="161.06 312.943 195.695 299.818 199.417 298.408 196.208 301.173 199.417 298.408 195.181 298.463"/><polyline id="Requests--from--HttpCommon" points="238.694 292.376 236.191 292.379 232.21 292.384 236.189 290.93 232.21 292.384 236.193 293.828"/><polyline id="Requests--from--HttpParser" points="278.142 261.811 234.082 283.247 230.502 284.989 233.448 281.944 230.502 284.989 234.716 284.55"/><polyline id="Requests--from--JSON" points="340.654 323.06 235.592 297.373 231.725 296.427 235.936 295.965 231.725 296.427 235.248 298.78"/><polyline id="Requests--from--Libz" points="167.85 265.066 197.134 281.95 200.583 283.938 196.41 283.205 200.583 283.938 197.858 280.695"/><polyline id="WinRPM--from--URIParser" points="211.774 223.013 213.865 202.028 214.259 198.066 215.307 202.171 214.259 198.066 212.423 201.884"/><polyline id="WinRPM--from--HTTPClient" points="179.293 193.379 196.08 187.802 199.858 186.547 196.536 189.177 199.858 186.547 195.623 186.427"/><polyline id="WinRPM--from--LibExpat" points="139.761 157.156 195.983 174.904 199.779 176.102 195.547 176.286 199.779 176.102 196.419 173.522"/><polyline id="WinRPM--from--BinDeps" points="256.895 182.441 236.857 181.836 232.878 181.716 236.901 180.388 232.878 181.716 236.813 183.284"/><polyline id="WinRPM--from--SHA" points="233.378 137.249 223.657 161.752 222.189 165.452 222.31 161.217 222.189 165.452 225.004 162.286"/><polyline id="WinRPM--from--Libz" points="164.012 243.578 202.55 197.287 205.097 194.227 203.663 198.214 205.097 194.227 201.436 196.36"/><polyline id="MbedTLS--from--Homebrew" points="314.094 221.263 276.275 232.339 272.454 233.458 275.868 230.948 272.454 233.458 276.682 233.729"/><polyline id="MbedTLS--from--BinDeps" points="268.68 199.097 262.555 218.285 261.345 222.077 261.175 217.844 261.345 222.077 263.935 218.725"/><polyline id="HttpCommon--from--URIParser" points="221.201 252.674 241.924 276.552 244.533 279.559 240.829 277.502 244.533 279.559 243.018 275.602"/><polyline id="HttpCommon--from--Nullables" points="337.166 272.912 275.996 287.502 272.123 288.426 275.66 286.093 272.123 288.426 276.332 288.911"/><polyline id="Libz--from--BaseTestNext" points="105.827 275.417 133.722 264.331 137.421 262.861 134.257 265.677 137.421 262.861 133.187 262.984"/><polyline id="Libz--from--BufferedStreams" points="111.881 225.356 136.482 243.974 139.656 246.376 135.608 245.129 139.656 246.376 137.356 242.818"/><polyline id="HttpServer--from--FactCheck" points="219.656 335.06 250.516 330.075 254.447 329.44 250.748 331.505 254.447 329.44 250.285 328.645"/><polyline id="HttpServer--from--MbedTLS" points="259.02 254.929 267.683 306.104 268.347 310.029 266.254 306.346 268.347 310.029 269.111 305.862"/><polyline id="HttpServer--from--Requests" points="229.704 301.27 253.343 315.787 256.735 317.87 252.585 317.021 256.735 317.87 254.101 314.552"/><polyline id="HttpServer--from--HttpCommon" points="262.618 307.8 262.558 307.667 264.198 311.295 261.238 308.264 264.198 311.295 263.879 307.071"/><polyline id="HttpServer--from--HttpParser" points="288.408 270.598 277.316 306.732 276.148 310.538 275.931 306.307 276.148 310.538 278.702 307.157"/><polyline id="Primes--from--DataStructures" points="426.518 274.506 446.917 249.013 449.404 245.904 448.048 249.918 449.404 245.904 445.785 248.107"/><polyline id="BufferedStreams--from--BaseTestNext" points="92.1737 264.86 95.7815 235.897 96.2735 231.946 97.2193 236.076 96.2735 231.946 94.3436 235.718"/><polyline id="Gumbo--from--AbstractTrees" points="343.986 103.456 314.601 106.725 310.644 107.165 314.441 105.285 310.644 107.165 314.761 108.165"/><polyline id="Gumbo--from--BinDeps" points="278.253 166.593 288.344 129.241 289.382 125.398 289.743 129.619 289.382 125.398 286.945 128.864"/><polyline id="HttpParser--from--HttpCommon" points="267.588 280.34 278.626 269.238 281.432 266.415 279.653 270.26 281.432 266.415 277.598 268.216"/><polyline id="HttpParser--from--BinDeps" points="278.306 199.298 287.858 234.212 288.908 238.052 286.46 234.595 288.908 238.052 289.255 233.83"/><polyline id="WebSockets--from--MbedTLS" points="249.516 253.796 196.19 378.216 194.622 381.875 194.858 377.645 194.622 381.875 197.522 378.786"/><polyline id="WebSockets--from--Codecs" points="151.278 334.772 167.716 377.662 169.141 381.379 166.363 378.18 169.141 381.379 169.069 377.143"/><polyline id="WebSockets--from--HttpCommon" points="246.749 306.783 201.141 380.785 199.052 384.174 199.908 380.024 199.052 384.174 202.375 381.545"/><polyline id="WebSockets--from--HttpServer" points="258.95 338.472 208.595 386.801 205.722 389.558 207.591 385.756 205.722 389.558 209.598 387.846"/><polyline id="Blink--from--WebSockets" points="213.266 401.849 302.222 370.773 305.98 369.46 302.7 372.141 305.98 369.46 301.744 369.405"/><polyline id="Blink--from--Mux" points="265.533 360.546 301.087 362.641 305.061 362.875 301.002 364.087 305.061 362.875 301.172 361.194"/><polyline id="Blink--from--BinDeps" points="278.191 199.329 316.596 343.648 317.62 347.495 315.196 344.021 317.62 347.495 317.997 343.275"/><polyline id="Blink--from--HttpServer" points="284.857 336.738 305.083 351.522 308.297 353.871 304.228 352.692 308.297 353.871 305.938 350.352"/><polyline id="Blink--from--JSON" points="345.411 339.338 336.432 348.738 333.683 351.617 335.385 347.737 333.683 351.617 337.48 349.739"/><polyline id="LibCURL--from--BinDeps" points="259.043 174.682 200.491 141.938 197.017 139.995 201.199 140.674 197.017 139.995 199.784 143.203"/><polyline id="LibCURL--from--WinRPM" points="206.397 167.199 194.01 149.018 191.768 145.729 195.207 148.203 191.768 145.729 192.813 149.834"/><polyline id="HTTPClient--from--JSON" points="342.985 317.73 180.661 210.274 177.341 208.076 181.461 209.066 177.341 208.076 179.861 211.482"/><polyline id="HTTPClient--from--LibCURL" points="177.6 148.026 168.925 178.59 167.838 182.42 167.531 178.195 167.838 182.42 170.319 178.986"/><polyline id="GSL--from--Homebrew" points="327.049 199.88 322.291 175.968 321.514 172.063 323.712 175.685 321.514 172.063 320.87 176.251"/><polyline id="GSL--from--BinDeps" points="288.236 174.024 300.421 166.47 303.804 164.372 301.184 167.702 303.804 164.372 299.657 165.239"/><polyline id="GSL--from--WinRPM" points="232.372 177.064 297.914 160.555 301.774 159.583 298.268 161.96 301.774 159.583 297.56 159.15"/><polyline id="Mux--from--URIParser" points="215.287 256.006 242.204 339.629 243.424 343.419 240.825 340.073 243.424 343.419 243.583 339.185"/><polyline id="Mux--from--WebSockets" points="207.812 391.95 232.228 372.563 235.345 370.088 233.129 373.698 235.345 370.088 231.326 371.429"/><polyline id="Mux--from--Requests" points="222.802 307.579 239.307 340.807 241.078 344.373 238.009 341.452 241.078 344.373 240.604 340.163"/><polyline id="Mux--from--HttpCommon" points="253.878 309.211 250.792 338.736 250.378 342.696 249.351 338.585 250.378 342.696 252.233 338.887"/><polyline id="Mux--from--HttpServer" points="261.575 340.702 260.473 342.305 258.217 345.586 259.279 341.484 258.217 345.586 261.666 343.126"/><polyline id="PlotlyJS--from--Blink" points="338.395 359.668 371.067 351.303 374.923 350.316 371.426 352.707 374.923 350.316 370.707 349.9"/><polyline id="PlotlyJS--from--JSON" points="371.926 335.319 373.05 335.944 376.529 337.878 372.346 337.21 376.529 337.878 373.754 334.677"/><polyline id="Atom--from--Blink" points="334.755 375.003 347.003 385.672 350.004 388.287 346.051 386.765 350.004 388.287 347.954 384.58"/><polyline id="Atom--from--JSON" points="358.439 343.978 361.147 378.555 361.458 382.524 359.703 378.668 361.458 382.524 362.592 378.442"/><polyline id="Pages--from--PlotlyJS" points="408.28 346.557 427.444 347.059 431.424 347.164 427.406 348.508 431.424 347.164 427.482 345.611"/><polyline id="Pages--from--JSON" points="373.648 330.803 427.947 343.016 431.831 343.889 427.629 344.429 431.831 343.889 428.265 341.602"/><polyline id="Escher--from--WebSockets" points="214.576 419.303 244.708 424.981 248.62 425.718 244.44 426.405 248.62 425.718 244.977 423.557"/><polyline id="Escher--from--JSON" points="345.762 339.665 279.294 413.32 276.626 416.276 278.218 412.35 276.626 416.276 280.369 414.291"/><polyline id="Escher--from--FactCheck" points="212.498 351.747 253.454 411.587 255.702 414.872 252.258 412.405 255.702 414.872 254.649 410.769"/><polyline id="Escher--from--Mux" points="252.576 376.027 260.383 408.509 261.313 412.38 258.974 408.847 261.313 412.38 261.792 408.17"/><polyline id="D3Trees--from--Blink" points="337.753 370.062 396.044 392.937 399.75 394.391 395.515 394.285 399.75 394.391 396.573 391.588"/><polyline id="D3Trees--from--JSON" points="367.659 340.351 402.505 384.198 404.982 387.315 401.37 385.099 404.982 387.315 403.639 383.296"/><polyline id="DataVoyager--from--Blink" points="323.272 380.768 326.134 418.124 326.438 422.093 324.689 418.235 326.438 422.093 327.579 418.013"/><polyline id="DataVoyager--from--JSON" points="352.812 343.475 333.047 418.749 332.036 422.599 331.646 418.381 332.036 422.599 334.448 419.117"/><polyline id="HeadlessChromium--from--WebSockets" points="214.454 406.135 271.445 394.3 275.343 393.491 271.74 395.719 275.343 393.491 271.151 392.882"/><polyline id="HeadlessChromium--from--HttpServer" points="276.456 342.84 285.415 370.16 286.655 373.943 284.038 370.612 286.655 373.943 286.791 369.709"/><polyline id="HeadlessChromium--from--JSON" points="344.927 338.858 306.987 375.506 304.123 378.272 305.98 374.464 304.123 378.272 307.993 376.548"/><polyline id="ECharts--from--Atom" points="369.561 414.949 381.999 443.439 383.591 447.087 380.671 444.019 383.591 447.087 383.326 442.859"/><polyline id="Plotly--from--PlotlyJS" points="376.35 338.209 332.679 315.185 329.157 313.328 333.355 313.903 329.157 313.328 332.003 316.467"/><polyline id="Plotly--from--Requests" points="232.065 294.615 293.419 302.693 297.366 303.213 293.23 304.13 297.366 303.213 293.608 301.257"/><polyline id="Plotly--from--JSON" points="341.984 319.454 332.853 314.848 329.298 313.056 333.505 313.555 329.298 313.056 332.2 316.142"/>
<desc>Template for drawing, editing and updating node graph layouts</desc>
    <defs>
    <style>
             /* brown-cyan color scheme https://github.com/cormullion/ColorSchemes.jl
                 starting brown, lightest at co5 and co6, blue at 9 */ 
            :root {--co1: rgb(89,51,22);
            --co2: rgb(143,107,74);
            --co3: rgb(186,157,131);
            --co4: rgb(210,195,178);
            --co5: rgb(213,225,219);
            --co6: rgb(194,239,243);
            --co7: rgb(163,236,248);
            --co8: rgb(129,218,239);
            --co9: rgb(87,166,197);
				}
                 svg {font-family: Verdana,sans-serif;font-size:4px;
                        margin:0 0 0 0;
                        background:var(--co1);
                        text-anchor:middle;
                     /* fill in svg corresponds to color in html css. could also use inherit current color for more flexibility.*/ 
                        fill:var(--co7);
						-moz-user-select: none;
						-ms-user-select: none;
						user-select: none;
             /* redefined for specific elements below*/ 
                        stroke:var(--co4); 
                        }
                text {stroke-width:0em; transform:translate(0, .3em);pointer-events: all;}
                text:hover {stroke-width:0.05em;stroke:var(--co6);visibility:visible}
                circle {stroke:var(--co2);fill:var(--co3);fill-opacity:0.6;stroke-width:.05em;stroke-opacity:0.6; r:4em;}
				circle.co1{stroke:var(--co1);fill:var(--co1)}
				circle.co2{stroke:var(--co1);fill:var(--co2)}
				circle.co3{stroke:var(--co2);fill:var(--co3)}
				circle.co4{stroke:var(--co3);fill:var(--co4)}
				circle.co5{stroke:var(--co4);fill:var(--co5)}
				circle.co6{stroke:var(--co5);fill:var(--co6)}
				circle.co7{stroke:var(--co6);fill:var(--co7)}
				circle.co8{stroke:var(--co7);fill:var(--co8)}
				circle.co9{stroke:var(--co8);fill:var(--co9)}
                polyline {fill:none;stroke:var(--co2);stroke-width:.05em;}
                polyline:hover {stroke-width:.4em;}
				polyline.co1{stroke:var(--co1)}
				polyline.co2{stroke:var(--co1)}
				polyline.co3{stroke:var(--co2)}
				polyline.co4{stroke:var(--co3)}
				polyline.co5{stroke:var(--co4)}
				polyline.co6{stroke:var(--co5)}
				polyline.co7{stroke:var(--co6)}
				polyline.co8{stroke:var(--co7)}
				polyline.co9{stroke:var(--co8)}
                g {
                    cursor: move; /* fallback: no `url()` support or images disabled */
                    cursor: url(images/grab.cur); /* fallback: Internet Explorer */
                    cursor: -webkit-grab; /* Chrome 1-21, Safari 4+ */
                    cursor:    -moz-grab; /* Firefox 1.5-26 */
                    cursor:         grab; /* W3C standards syntax, should come least */
                }
                g:active {
                    cursor: url(images/grabbing.cur);
                    cursor: -webkit-grabbing;
                    cursor:    -moz-grabbing;
                    cursor:         grabbing;
                            }
                 rect {stroke:var(--co1);fill:var(--co2);fill-opacity:0.6;stroke-width:.05em;}   
                </style>
    </defs>
  <rect width="10%" height="100%" class="moveoverrequestupdate"/>
  <rect width="10%" height="100%" class="moveoverrequestupdate" x="538.583"/>

<g id="Plotly" transform="matrix(1 0 0 1 314.167 305.425)" data-from="[&quot;JSON&quot;,&quot;Requests&quot;,&quot;PlotlyJS&quot;]"><circle/><text>Plotly</text></g><g id="ECharts" transform="matrix(1 0 0 1 390.371 462.618)" data-from="[&quot;Atom&quot;]"><circle/><text>ECharts</text></g><g id="HeadlessChromium" transform="matrix(1 0 0 1 291.935 390.045)" data-from="[&quot;JSON&quot;,&quot;HttpServer&quot;,&quot;WebSockets&quot;]"><circle/><text>HeadlessChromium</text></g><g id="DataVoyager" transform="matrix(1 0 0 1 327.732 438.99)" data-from="[&quot;JSON&quot;,&quot;Blink&quot;]"><circle/><text>DataVoyager</text></g><g id="D3Trees" transform="matrix(1 0 0 1 415.525 400.581)" data-from="[&quot;JSON&quot;,&quot;Blink&quot;]"><circle/><text>D3Trees</text></g><g id="Escher" transform="matrix(1 0 0 1 265.273 428.857)" data-from="[&quot;Mux&quot;,&quot;FactCheck&quot;,&quot;JSON&quot;,&quot;WebSockets&quot;]"><circle/><text>Escher</text></g><g id="Pages" transform="matrix(1 0 0 1 448.364 347.608)" data-from="[&quot;JSON&quot;,&quot;PlotlyJS&quot;]"><circle/><text>Pages</text></g><g id="Atom" transform="matrix(1 0 0 1 362.782 399.418)" data-to="[&quot;ECharts&quot;]" data-from="[&quot;JSON&quot;,&quot;Blink&quot;]"><circle/><text>Atom</text></g><g id="PlotlyJS" transform="matrix(1 0 0 1 391.34 346.113)" data-to="[&quot;Plotly&quot;,&quot;Pages&quot;]" data-from="[&quot;JSON&quot;,&quot;Blink&quot;]"><circle/><text>PlotlyJS</text></g><g id="Mux" transform="matrix(1 0 0 1 248.616 359.55)" data-to="[&quot;Escher&quot;,&quot;Blink&quot;]" data-from="[&quot;HttpServer&quot;,&quot;HttpCommon&quot;,&quot;Requests&quot;,&quot;WebSockets&quot;,&quot;URIParser&quot;]"><circle/><text>Mux</text></g><g id="LibExpat" transform="matrix(1 0 0 1 123.601 152.055)" data-to="[&quot;WinRPM&quot;]" data-from="[]"><circle class="co2"/><text>LibExpat</text></g><g id="GSL" transform="matrix(1 0 0 1 318.207 155.443)" data-to="[&quot;BinDeps&quot;]" data-from="[&quot;WinRPM&quot;,&quot;BinDeps&quot;,&quot;Homebrew&quot;]"><circle class="co2"/><text>GSL</text></g><g id="HTTPClient" transform="matrix(1 0 0 1 163.211 198.722)" data-to="[&quot;WinRPM&quot;]" data-from="[&quot;LibCURL&quot;,&quot;JSON&quot;]"><circle class="co2"/><text>HTTPClient</text></g><g id="LibCURL" transform="matrix(1 0 0 1 182.226 131.724)" data-to="[&quot;HTTPClient&quot;]" data-from="[&quot;WinRPM&quot;,&quot;BinDeps&quot;]"><circle class="co2"/><text>LibCURL</text></g><g id="Blink" transform="matrix(1 0 0 1 321.978 363.871)" data-to="[&quot;DataVoyager&quot;,&quot;D3Trees&quot;,&quot;Atom&quot;,&quot;PlotlyJS&quot;]" data-from="[&quot;JSON&quot;,&quot;HttpServer&quot;,&quot;BinDeps&quot;,&quot;Mux&quot;,&quot;WebSockets&quot;]"><circle/><text>Blink</text></g><g id="WebSockets" transform="matrix(2 0 0 2 181.27 413.026)" data-to="[&quot;HeadlessChromium&quot;,&quot;Escher&quot;,&quot;Mux&quot;,&quot;Blink&quot;]" data-from="[&quot;HttpServer&quot;,&quot;HttpCommon&quot;,&quot;Codecs&quot;,&quot;MbedTLS&quot;]"><circle class="co5" r="2"/><text>WebSockets</text></g><g id="HttpParser" transform="matrix(1 0 0 1 293.38 254.398)" data-to="[&quot;HttpServer&quot;,&quot;Requests&quot;,&quot;BinDeps&quot;]" data-from="[&quot;BinDeps&quot;,&quot;HttpCommon&quot;]"><circle class="co2"/><text>HttpParser</text></g><g id="Codecs" transform="matrix(1 0 0 1 145.213 318.948)" data-to="[&quot;WebSockets&quot;,&quot;Requests&quot;]" data-from="[]"><circle class="co2"/><text>Codecs</text></g><g id="Gumbo" transform="matrix(1 0 0 1 293.802 109.039)" data-to="[&quot;BinDeps&quot;]" data-from="[&quot;BinDeps&quot;,&quot;AbstractTrees&quot;]"><circle class="co2"/><text>Gumbo</text></g><g id="Nullables" transform="matrix(1 0 0 1 353.65 268.981)" data-to="[&quot;HttpCommon&quot;,&quot;JSON&quot;]" data-from="[]"><circle class="co2"/><text>Nullables</text></g><g id="BufferedStreams" transform="matrix(1 0 0 1 98.3682 215.13)" data-to="[&quot;Libz&quot;]" data-from="[&quot;BaseTestNext&quot;]"><circle class="co2"/><text>BufferedStreams</text></g><g id="AbstractTrees" transform="matrix(1 0 0 1 360.828 101.583)" data-to="[&quot;Gumbo&quot;]" data-from="[]"><circle class="co2"/><text>AbstractTrees</text></g><g id="Primes" transform="matrix(1 0 0 1 459.991 232.672)" data-to="[&quot;DataStructures&quot;]" data-from="[&quot;DataStructures&quot;]"><circle class="co2"/><text>Primes</text></g><g id="SHA" transform="matrix(1 0 0 1 239.627 121.497)" data-to="[&quot;WinRPM&quot;,&quot;BinDeps&quot;]"><circle class="co2"/><text>SHA</text></g><g id="HttpServer" transform="matrix(1 0 0 1 271.176 326.738)" data-to="[&quot;HeadlessChromium&quot;,&quot;Mux&quot;,&quot;Blink&quot;,&quot;WebSockets&quot;]" data-from="[&quot;HttpParser&quot;,&quot;HttpCommon&quot;,&quot;Requests&quot;,&quot;MbedTLS&quot;,&quot;FactCheck&quot;]"><circle class="co2"/><text>HttpServer</text></g><g id="Libz" transform="matrix(1 0 0 1 153.169 256.602)" data-to="[&quot;WinRPM&quot;,&quot;Requests&quot;]" data-from="[&quot;BufferedStreams&quot;,&quot;BaseTestNext&quot;]"><circle class="co2"/><text>Libz</text></g><g id="HttpCommon" transform="matrix(1 0 0 1 255.64 292.357)" data-to="[&quot;Mux&quot;,&quot;WebSockets&quot;,&quot;HttpParser&quot;,&quot;HttpServer&quot;,&quot;Requests&quot;]" data-from="[&quot;Nullables&quot;,&quot;URIParser&quot;]"><circle class="co2"/><text>HttpCommon</text></g><g id="MbedTLS" transform="matrix(1 0 0 1 256.191 238.221)" data-to="[&quot;WebSockets&quot;,&quot;HttpServer&quot;,&quot;Requests&quot;]" data-from="[&quot;BinDeps&quot;,&quot;Homebrew&quot;]"><circle class="co2"/><text>MbedTLS</text></g><g id="URIParser" transform="matrix(1 0 0 1 210.094 239.875)" data-to="[&quot;Mux&quot;,&quot;HttpCommon&quot;,&quot;WinRPM&quot;,&quot;Requests&quot;,&quot;BinDeps&quot;]"><circle class="co2"/><text>URIParser</text></g><g id="Cairo" transform="matrix(1 0 0 1 374.751 167.592)" data-to="[&quot;BinDeps&quot;]"><circle class="co2"/><text>Cairo</text></g><g id="OffsetArrays" transform="matrix(1 0 0 1 476.903 294.662)" data-to="[&quot;JSON&quot;]" data-from="[]"><circle class="co2"/><text>OffsetArrays</text></g><g id="BaseTestNext" transform="matrix(1 0 0 1 90.0791 281.676)" data-to="[&quot;BufferedStreams&quot;,&quot;Libz&quot;]"><circle class="co2"/><text>BaseTestNext</text></g><g id="WinRPM" transform="matrix(1 0 0 1 215.939 181.204)" data-to="[&quot;GSL&quot;,&quot;LibCURL&quot;]" data-from="[&quot;Libz&quot;,&quot;SHA&quot;,&quot;BinDeps&quot;,&quot;LibExpat&quot;,&quot;HTTPClient&quot;,&quot;URIParser&quot;]"><circle class="co2"/><text>WinRPM</text></g><g id="FixedPointNumbers" transform="matrix(1 0 0 1 395.807 229.064)" data-to="[&quot;JSON&quot;]" data-from="[]"><circle class="co2"/><text>FixedPointNumbers</text></g><g id="Requests" transform="matrix(1 0 0 1 215.264 292.403)" data-to="[&quot;Plotly&quot;,&quot;Mux&quot;,&quot;HttpServer&quot;]" data-from="[&quot;Libz&quot;,&quot;JSON&quot;,&quot;HttpParser&quot;,&quot;HttpCommon&quot;,&quot;Codecs&quot;,&quot;MbedTLS&quot;,&quot;URIParser&quot;]"><circle class="co2"/><text>Requests</text></g><g id="Homebrew" transform="matrix(1 0 0 1 330.357 216.5)" data-to="[&quot;GSL&quot;,&quot;MbedTLS&quot;]" data-from="[&quot;JSON&quot;,&quot;BinDeps&quot;]"><circle class="co2"/><text>Homebrew</text></g><g id="FactCheck" transform="matrix(1 0 0 1 202.927 337.762)" data-to="[&quot;Escher&quot;,&quot;HttpServer&quot;]" data-from="[]"><circle class="co2"/><text>FactCheck</text></g><g id="JSON" transform="matrix(1 0 0 1 357.115 327.084)" data-to="[&quot;Plotly&quot;,&quot;HeadlessChromium&quot;,&quot;DataVoyager&quot;,&quot;D3Trees&quot;,&quot;Escher&quot;,&quot;Pages&quot;,&quot;Atom&quot;,&quot;PlotlyJS&quot;,&quot;HTTPClient&quot;,&quot;Blink&quot;,&quot;Requests&quot;,&quot;Homebrew&quot;]" data-from="[&quot;OffsetArrays&quot;,&quot;DataStructures&quot;,&quot;Nullables&quot;,&quot;FixedPointNumbers&quot;]"><circle class="co2"/><text>JSON</text></g><g id="BinDeps" transform="matrix(1 0 0 1 273.834 182.953)" data-to="[&quot;GSL&quot;,&quot;LibCURL&quot;,&quot;Blink&quot;,&quot;HttpParser&quot;,&quot;Gumbo&quot;,&quot;MbedTLS&quot;,&quot;WinRPM&quot;,&quot;Homebrew&quot;]" data-from="[&quot;SHA&quot;,&quot;HttpParser&quot;,&quot;Gumbo&quot;,&quot;Cairo&quot;,&quot;GSL&quot;,&quot;URIParser&quot;]"><circle class="co2"/><text>BinDeps</text></g><g id="DataStructures" transform="matrix(1 0 0 1 415.931 287.738)" data-to="[&quot;Primes&quot;,&quot;JSON&quot;]" data-from="[&quot;Primes&quot;]"><circle class="co2"/><text>DataStructures</text></g></svg>