<svg xmlns="http://www.w3.org/2000/svg" version="1.1" baseProfile="tiny" width="220mm" height="200mm" viewBox="0 20 220 200">
<desc>Template for drawing, editing and updating node graph layouts</desc>
    <defs>
    <style>
             /* brown-cyan color scheme https://github.com/cormullion/ColorSchemes.jl
                 starting brown, lightest at co5 and co6, blue at 9 */ 
            :root {--co1: rgb(89,51,22);
            --co2: rgb(143,107,74);
            --co3: rgb(186,157,131);
            --co4: rgb(210,195,178);
            --co5: rgb(213,225,219);
            --co6: rgb(194,239,243);
            --co7: rgb(163,236,248);
            --co8: rgb(129,218,239);
            --co9: rgb(87,166,197);
				}
                 svg {font-family: Verdana,sans-serif;font-size:3px;
                        margin:0 0 0 0;
                        background:var(--co1);
                        text-anchor:middle;
                     /* fill in svg corresponds to color in html css. could also use inherit current color for more flexibility.*/ 
                        fill:var(--co7);
						-moz-user-select: none;
						-ms-user-select: none;
						user-select: none;
             /* redefined for specific elements below*/ 
                        stroke:var(--co4); 
                        }
                text {stroke-width:0em; transform:translate(0, .3em);pointer-events: all;}
                text:hover {stroke-width:0.05em;stroke:var(--co6);visibility:visible}
                circle {stroke:var(--co2);fill:var(--co3);fill-opacity:0.6;stroke-width:.05em;stroke-opacity:0.6; r:2.3em;}
				circle.co1{stroke:var(--co1);fill:var(--co1)}
				circle.co2{stroke:var(--co1);fill:var(--co2)}
				circle.co3{stroke:var(--co2);fill:var(--co3)}
				circle.co4{stroke:var(--co3);fill:var(--co4)}
				circle.co5{stroke:var(--co4);fill:var(--co5)}
				circle.co6{stroke:var(--co5);fill:var(--co6)}
				circle.co7{stroke:var(--co6);fill:var(--co7)}
				circle.co8{stroke:var(--co7);fill:var(--co8)}
				circle.co9{stroke:var(--co8);fill:var(--co9)}
                polyline {fill:none;stroke:var(--co2);stroke-width:.05em;}
                polyline:hover {stroke-width:.4em;}
				polyline.co1{stroke:var(--co1)}
				polyline.co2{stroke:var(--co1)}
				polyline.co3{stroke:var(--co2)}
				polyline.co4{stroke:var(--co3)}
				polyline.co5{stroke:var(--co4)}
				polyline.co6{stroke:var(--co5)}
				polyline.co7{stroke:var(--co6)}
				polyline.co8{stroke:var(--co7)}
				polyline.co9{stroke:var(--co8)}
                g {
                    cursor: move; /* fallback: no `url()` support or images disabled */
                    cursor: url(images/grab.cur); /* fallback: Internet Explorer */
                    cursor: -webkit-grab; /* Chrome 1-21, Safari 4+ */
                    cursor:    -moz-grab; /* Firefox 1.5-26 */
                    cursor:         grab; /* W3C standards syntax, should come least */
                }
                g:active {
                    cursor: url(images/grabbing.cur);
                    cursor: -webkit-grabbing;
                    cursor:    -moz-grabbing;
                    cursor:         grabbing;
                            }
                 rect {stroke:var(--co1);fill:var(--co2);fill-opacity:0.6;stroke-width:.05em;}   
                </style>
    </defs>
<polyline id="DataStructures--from--Primes" points="167.599 74.8057 162.445 67.8828 161.336 66.394 162.987 67.4794 161.336 66.394 161.903 68.2863"/><polyline id="BinDeps--from--URIParser" points="104.004 129.607 105.15 131.4 106.15 132.964 104.581 131.764 106.15 132.964 105.719 131.036"/><polyline id="BinDeps--from--GSL" points="99.4297 142.883 101.054 142.4 102.833 141.871 101.246 143.048 102.833 141.871 100.861 141.753"/><polyline id="BinDeps--from--Cairo" points="145.558 160.817 118.763 144.659 117.173 143.7 119.112 144.08 117.173 143.7 118.414 145.237"/><polyline id="BinDeps--from--Gumbo" points="123.319 155.804 116.492 147.247 115.335 145.796 117.02 146.826 115.335 145.796 115.964 147.669"/><polyline id="BinDeps--from--HttpParser" points="113.438 121.514 112.018 129.997 111.711 131.827 111.352 129.885 111.711 131.827 112.684 130.108"/><polyline id="BinDeps--from--SHA" points="108.532 151.451 108.88 149.257 109.17 147.424 109.547 149.363 109.17 147.424 108.213 149.152"/><polyline id="JSON--from--FixedPointNumbers" points="135.885 49.0615 123.147 69.9136 122.179 71.4976 122.57 69.5614 122.179 71.4976 123.723 70.2657"/><polyline id="JSON--from--Nullables" points="123.883 88.686 122.811 86.763 121.907 85.1417 123.401 86.434 121.907 85.1417 122.221 87.0919"/><polyline id="JSON--from--DataStructures" points="149.471 63.4266 126.885 74.0782 125.206 74.87 126.597 73.4672 125.206 74.87 127.173 74.6893"/><polyline id="JSON--from--OffsetArrays" points="147.172 95.818 126.413 83.2837 124.824 82.3243 126.762 82.7054 124.824 82.3243 126.064 83.8621"/><polyline id="Homebrew--from--BinDeps" points="102.609 140.892 81.4695 144.34 79.6376 144.639 81.3608 143.674 79.6376 144.639 81.5783 145.007"/><polyline id="Homebrew--from--JSON" points="113.604 84.7648 77.3427 137.854 76.2958 139.387 76.7849 137.473 76.2958 139.387 77.9006 138.235"/><polyline id="Requests--from--URIParser" points="100.777 115.117 102.2 104.291 102.442 102.451 102.87 104.379 102.442 102.451 101.53 104.203"/><polyline id="Requests--from--MbedTLS" points="86.017 117.289 97.5195 102.348 98.6519 100.878 98.0548 102.76 98.6519 100.878 96.9842 101.936"/><polyline id="Requests--from--Codecs" points="82.8899 78.4305 95.8022 88.5852 97.2613 89.7326 95.3846 89.1162 97.2613 89.7326 96.2198 88.0541"/><polyline id="Requests--from--HttpCommon" points="99.8306 98.1166 96.4369 101.378 97.7752 100.092 96.905 101.865 97.7752 100.092 95.9688 100.891"/><polyline id="Requests--from--HttpParser" points="110.728 106.916 108.43 103.021 107.487 101.422 109.012 102.678 107.487 101.422 107.848 103.364"/><polyline id="Requests--from--JSON" points="112.804 84.1401 109.962 87.331 108.727 88.717 109.458 86.8816 108.727 88.717 110.467 87.7803"/><polyline id="Requests--from--Libz" points="144.534 120.168 111.756 99.772 110.18 98.7913 112.113 99.1984 110.18 98.7913 111.399 100.346"/><polyline id="WinRPM--from--URIParser" points="106.577 126.922 115.363 132.032 116.968 132.965 115.024 132.616 116.968 132.965 115.703 131.448"/><polyline id="WinRPM--from--HTTPClient" points="131.2 122.361 128.216 128.237 127.376 129.892 127.614 127.931 127.376 129.892 128.819 128.543"/><polyline id="WinRPM--from--LibExpat" points="90.9734 163.59 116.223 143.087 117.664 141.917 116.649 143.612 117.664 141.917 115.798 142.563"/><polyline id="WinRPM--from--BinDeps" points="118.154 138.068 114.231 138.854 116.051 138.489 114.364 139.516 116.051 138.489 114.098 138.192"/><polyline id="WinRPM--from--SHA" points="111.993 152.902 117.997 144.782 119.101 143.29 118.54 145.184 119.101 143.29 117.454 144.381"/><polyline id="WinRPM--from--Libz" points="144.061 127.638 132.666 132.867 130.979 133.641 132.385 132.253 130.979 133.641 132.948 133.481"/><polyline id="MbedTLS--from--Homebrew" points="74.8894 138.623 77.4304 132.55 78.1469 130.838 78.0536 132.811 78.1469 130.838 76.8072 132.29"/><polyline id="MbedTLS--from--BinDeps" points="103.484 135.811 89.7458 128.253 88.1196 127.358 90.0715 127.661 88.1196 127.358 89.4202 128.845"/><polyline id="HttpCommon--from--URIParser" points="97.5468 115.362 96.8512 112.963 96.3343 111.18 97.5 112.775 96.3343 111.18 96.2023 113.151"/><polyline id="HttpCommon--from--Nullables" points="120.044 97.4186 103.626 101.33 101.82 101.76 103.469 100.673 101.82 101.76 103.782 101.987"/><polyline id="Libz--from--BaseTestNext" points="163.621 137.375 157.962 131.417 156.684 130.071 158.452 130.952 156.684 130.071 157.472 131.882"/><polyline id="Libz--from--BufferedStreams" points="167.11 119.022 160.493 121.24 158.734 121.831 160.279 120.6 158.734 121.831 160.708 121.881"/><polyline id="HttpServer--from--FactCheck" points="41.5413 122.973 69.1445 99.1578 70.5499 97.9452 69.5858 99.6693 70.5499 97.9452 68.7032 98.6462"/><polyline id="HttpServer--from--MbedTLS" points="80.0125 115.737 77.995 102.431 77.7168 100.596 78.663 102.33 77.7168 100.596 77.3271 102.532"/><polyline id="HttpServer--from--Requests" points="95.589 94.0805 86.2673 93.4462 84.4154 93.3202 86.3131 92.7722 84.4154 93.3202 86.2214 94.1203"/><polyline id="HttpServer--from--HttpCommon" points="87.4006 99.4572 84.8474 97.8895 83.2656 96.9182 85.2009 97.3138 83.2656 96.9182 84.4939 98.4652"/><polyline id="HttpServer--from--HttpParser" points="107.813 109.924 85.0894 97.4726 83.4615 96.5806 85.414 96.8801 83.4615 96.5806 84.7647 98.065"/><polyline id="Primes--from--DataStructures" points="161.336 66.394 166.49 73.3168 167.599 74.8057 165.948 73.7203 167.599 74.8057 167.032 72.9134"/><polyline id="BufferedStreams--from--BaseTestNext" points="170.674 135.369 172.612 126.062 172.99 124.245 173.273 126.2 172.99 124.245 171.95 125.925"/><polyline id="Gumbo--from--AbstractTrees" points="114.666 173.08 120.692 168.155 122.129 166.98 121.119 168.678 122.129 166.98 120.264 167.632"/><polyline id="Gumbo--from--BinDeps" points="115.335 145.796 122.161 154.353 123.319 155.804 121.633 154.774 123.319 155.804 122.69 153.932"/><polyline id="HttpParser--from--HttpCommon" points="101.225 107.077 105.986 109.417 107.652 110.236 105.688 110.023 107.652 110.236 106.284 108.811"/><polyline id="HttpParser--from--BinDeps" points="111.711 131.827 113.132 123.344 113.438 121.514 113.798 123.456 113.438 121.514 112.465 123.233"/><polyline id="WebSockets--from--MbedTLS" points="75.2124 118.39 58.1286 103.663 56.7227 102.451 58.5697 103.151 56.7227 102.451 57.6875 104.175"/><polyline id="WebSockets--from--Codecs" points="69.8509 77.5216 60.0143 83.2485 58.4101 84.1824 59.6744 82.6647 58.4101 84.1824 60.3542 83.8324"/><polyline id="WebSockets--from--HttpCommon" points="86.4371 101.806 61.9552 96.1248 60.1471 95.7052 62.1079 95.4667 60.1471 95.7052 61.8025 96.7829"/><polyline id="WebSockets--from--HttpServer" points="68.6328 92.6221 62.4085 92.4947 60.5527 92.4567 62.4224 91.8193 60.5527 92.4567 62.3947 93.1701"/><polyline id="Blink--from--WebSockets" points="59.9778 87.8976 84.9145 80.9597 86.7027 80.4621 85.0956 81.6105 86.7027 80.4621 84.7334 80.3088"/><polyline id="Blink--from--Mux" points="80.8032 101.006 89.318 86.7251 90.2685 85.1308 89.8982 87.0711 90.2685 85.1308 88.7377 86.3791"/><polyline id="Blink--from--BinDeps" points="108.4 131.978 96.7933 87.7817 96.3218 85.9864 97.4467 87.6101 96.3218 85.9864 96.1398 87.9533"/><polyline id="Blink--from--HttpServer" points="82.6661 87.8032 86.7402 84.495 88.1811 83.3249 87.166 85.0194 88.1811 83.3249 86.3143 83.9706"/><polyline id="Blink--from--JSON" points="110.159 78.2748 104.072 78.3015 102.216 78.3097 104.069 77.626 102.216 78.3097 104.075 78.9771"/><polyline id="LibCURL--from--BinDeps" points="118.262 140.473 132.815 142.053 134.66 142.253 132.742 142.725 134.66 142.253 132.888 141.381"/><polyline id="LibCURL--from--WinRPM" points="131.302 139.41 133.248 140.052 135.011 140.633 133.037 140.693 135.011 140.633 133.46 139.41"/><polyline id="HTTPClient--from--JSON" points="121.308 85.4431 130.767 106.421 131.53 108.113 130.151 106.699 131.53 108.113 131.383 106.143"/><polyline id="HTTPClient--from--LibCURL" points="140.396 135.495 137.395 124.716 136.897 122.928 138.046 124.535 136.897 122.928 136.744 124.897"/><polyline id="GSL--from--Homebrew" points="79.7347 145.605 82.1059 145.513 83.9607 145.441 82.1321 146.188 83.9607 145.441 82.0797 144.838"/><polyline id="GSL--from--BinDeps" points="102.833 141.871 101.209 142.354 99.4297 142.883 101.016 141.707 99.4297 142.883 101.401 143.002"/><polyline id="GSL--from--WinRPM" points="116.145 138.901 101.307 142.709 99.5091 143.17 101.139 142.054 99.5091 143.17 101.475 143.363"/><polyline id="Mux--from--URIParser" points="93.1507 118.601 84.9031 113.164 83.3534 112.142 85.275 112.6 83.3534 112.142 84.5313 113.728"/><polyline id="Mux--from--WebSockets" points="58.948 99.0786 67.9925 103.504 69.6598 104.32 67.6955 104.111 69.6598 104.32 68.2894 102.897"/><polyline id="Mux--from--Requests" points="96.3857 98.1118 85.5079 103.477 83.8432 104.298 85.2091 102.871 83.8432 104.298 85.8067 104.083"/><polyline id="Mux--from--HttpCommon" points="86.4539 105.448 86.2411 105.5 84.4369 105.936 86.0823 104.843 84.4369 105.936 86.3998 106.156"/><polyline id="Mux--from--HttpServer" points="76.6506 100.684 76.6109 98.0363 76.6387 99.8923 75.9354 98.0464 76.6387 99.8923 77.2864 98.0262"/><polyline id="PlotlyJS--from--Blink" points="101.705 75.5475 122.173 67.8009 123.909 67.1439 122.412 68.4327 123.909 67.1439 121.934 67.169"/><polyline id="PlotlyJS--from--JSON" points="123.511 72.5201 124.568 71.411 125.848 70.0672 125.057 71.877 125.848 70.0672 124.078 70.9449"/><polyline id="Atom--from--Blink" points="99.4378 72.3289 110.26 59.6213 111.464 58.2081 110.775 60.0593 111.464 58.2081 109.746 59.1833"/><polyline id="Atom--from--JSON" points="117.614 70.3516 117.138 61.9346 117.033 60.0814 117.812 61.8965 117.033 60.0814 116.463 61.9728"/><polyline id="Pages--from--PlotlyJS" points="136.637 70.1718 139.32 73.099 140.575 74.4674 138.822 73.5555 140.575 74.4674 139.818 72.6425"/><polyline id="Pages--from--JSON" points="125.94 78.8207 136.182 79.5752 138.034 79.7116 136.133 80.249 138.034 79.7116 136.232 78.9015"/><polyline id="Escher--from--WebSockets" points="51.1283 106.593 55.4121 116.31 56.1609 118.008 54.794 116.582 56.1609 118.008 56.0303 116.037"/><polyline id="Escher--from--JSON" points="111.892 83.1779 66.9657 119.14 65.5166 120.3 66.5435 118.613 65.5166 120.3 67.3879 119.668"/><polyline id="Escher--from--FactCheck" points="43.4022 127.179 49.6624 126.417 51.505 126.193 49.744 127.088 51.505 126.193 49.5807 125.747"/><polyline id="Escher--from--Mux" points="71.1758 113.386 66.2405 118.331 64.9294 119.645 65.7623 117.854 64.9294 119.645 66.7187 118.808"/><polyline id="D3Trees--from--Blink" points="91.0325 71.1571 87.0799 62.5021 86.3088 60.8136 87.6945 62.2214 86.3088 60.8136 86.4654 62.7827"/><polyline id="D3Trees--from--JSON" points="111.595 73.698 91.0104 59.2358 89.4916 58.1687 91.3988 58.683 89.4916 58.1687 90.6221 59.7885"/><polyline id="DataVoyager--from--Blink" points="95.0193 70.4745 96.7886 50.7107 96.9541 48.8619 97.4615 50.7709 96.9541 48.8619 96.1157 50.6504"/><polyline id="DataVoyager--from--JSON" points="114.264 71.3104 102.346 49.55 101.454 47.922 102.938 49.2254 101.454 47.922 101.753 49.8745"/><polyline id="HeadlessChromium--from--WebSockets" points="51.5566 77.8702 56.3664 67.7859 57.1655 66.1105 56.9762 68.0768 57.1655 66.1105 55.7566 67.4951"/><polyline id="HeadlessChromium--from--HttpServer" points="73.1581 85.6393 64.7339 67.8019 63.9412 66.1235 65.3447 67.5134 63.9412 66.1235 64.123 68.0904"/><polyline id="HeadlessChromium--from--JSON" points="110.568 75.7303 69.819 62.0786 68.0589 61.4889 70.0336 61.438 68.0589 61.4889 69.6043 62.7192"/><polyline id="ECharts--from--Atom" points="117.315 44.3252 117.69 40.267 117.861 38.4187 118.363 40.3292 117.861 38.4187 117.017 40.2047"/><polyline id="Plotly--from--PlotlyJS" points="123.398 64.4603 112.742 64.6129 110.886 64.6394 112.733 63.9374 110.886 64.6394 112.752 65.2884"/><polyline id="Plotly--from--Requests" points="103.343 86.7168 103.145 74.5087 103.115 72.6528 103.82 74.4977 103.115 72.6528 102.469 74.5197"/><polyline id="Plotly--from--JSON" points="112.172 72.9716 110.257 71.2589 108.874 70.0212 110.708 70.7554 108.874 70.0212 109.807 71.7623"/>

<g id="Plotly" transform="matrix(1 0 0 1 102.986 64.7526)" data-from="[&quot;JSON&quot;,&quot;Requests&quot;,&quot;PlotlyJS&quot;]"><circle/><text>Plotly</text></g><g id="ECharts" transform="matrix(1 0 0 1 118.589 30.5511)" data-from="[&quot;Atom&quot;]"><circle/><text>ECharts</text></g><g id="HeadlessChromium" transform="matrix(1 0 0 1 60.567 58.979)" data-from="[&quot;JSON&quot;,&quot;HttpServer&quot;,&quot;WebSockets&quot;]"><circle/><text>HeadlessChromium</text></g><g id="DataVoyager" transform="matrix(1 0 0 1 97.6586 40.9921)" data-from="[&quot;JSON&quot;,&quot;Blink&quot;]"><circle/><text>DataVoyager</text></g><g id="D3Trees" transform="matrix(1 0 0 1 83.0266 53.6264)" data-from="[&quot;JSON&quot;,&quot;Blink&quot;]"><circle/><text>D3Trees</text></g><g id="Escher" transform="matrix(1 0 0 1 59.3483 125.238)" data-from="[&quot;Mux&quot;,&quot;FactCheck&quot;,&quot;JSON&quot;,&quot;WebSockets&quot;]"><circle/><text>Escher</text></g><g id="Pages" transform="matrix(1 0 0 1 145.913 80.2921)" data-from="[&quot;JSON&quot;,&quot;PlotlyJS&quot;]"><circle/><text>Pages</text></g><g id="Atom" transform="matrix(1 0 0 1 116.587 52.1928)" data-to="[&quot;ECharts&quot;]" data-from="[&quot;JSON&quot;,&quot;Blink&quot;]"><circle/><text>Atom</text></g><g id="PlotlyJS" transform="matrix(1 0 0 1 131.299 64.3471)" data-to="[&quot;Plotly&quot;,&quot;Pages&quot;]" data-from="[&quot;JSON&quot;,&quot;Blink&quot;]"><circle/><text>PlotlyJS</text></g><g id="Mux" transform="matrix(1 0 0 1 76.7569 107.793)" data-to="[&quot;Escher&quot;,&quot;Blink&quot;]" data-from="[&quot;HttpServer&quot;,&quot;HttpCommon&quot;,&quot;Requests&quot;,&quot;WebSockets&quot;,&quot;URIParser&quot;]"><circle/><text>Mux</text></g><g id="LibExpat" transform="matrix(1 0 0 1 84.8396 168.571)" data-to="[&quot;WinRPM&quot;]" data-from="[]"><circle class="co2"/><text>LibExpat</text></g><g id="GSL" transform="matrix(1 0 0 1 91.8559 145.134)" data-to="[&quot;BinDeps&quot;]" data-from="[&quot;WinRPM&quot;,&quot;BinDeps&quot;,&quot;Homebrew&quot;]"><circle class="co2"/><text>GSL</text></g><g id="HTTPClient" transform="matrix(1 0 0 1 134.778 115.316)" data-to="[&quot;WinRPM&quot;]" data-from="[&quot;LibCURL&quot;,&quot;JSON&quot;]"><circle class="co2"/><text>HTTPClient</text></g><g id="LibCURL" transform="matrix(1 0 0 1 142.515 143.106)" data-to="[&quot;HTTPClient&quot;]" data-from="[&quot;WinRPM&quot;,&quot;BinDeps&quot;]"><circle class="co2"/><text>LibCURL</text></g><g id="Blink" transform="matrix(1 0 0 1 94.3148 78.3443)" data-to="[&quot;DataVoyager&quot;,&quot;D3Trees&quot;,&quot;Atom&quot;,&quot;PlotlyJS&quot;]" data-from="[&quot;JSON&quot;,&quot;HttpServer&quot;,&quot;BinDeps&quot;,&quot;Mux&quot;,&quot;WebSockets&quot;]"><circle/><text>Blink</text></g><g id="WebSockets" transform="matrix(2 0 0 2 44.7536 92.1333)" data-to="[&quot;HeadlessChromium&quot;,&quot;Escher&quot;,&quot;Mux&quot;,&quot;Blink&quot;]" data-from="[&quot;HttpServer&quot;,&quot;HttpCommon&quot;,&quot;Codecs&quot;,&quot;MbedTLS&quot;]"><circle class="co5" r="2"/><text>WebSockets</text></g><g id="HttpParser" transform="matrix(1 0 0 1 114.743 113.721)" data-to="[&quot;HttpServer&quot;,&quot;Requests&quot;,&quot;BinDeps&quot;]" data-from="[&quot;BinDeps&quot;,&quot;HttpCommon&quot;]"><circle class="co2"/><text>HttpParser</text></g><g id="Codecs" transform="matrix(1 0 0 1 76.6792 73.5462)" data-to="[&quot;WebSockets&quot;,&quot;Requests&quot;]" data-from="[]"><circle class="co2"/><text>Codecs</text></g><g id="Gumbo" transform="matrix(1 0 0 1 128.247 161.98)" data-to="[&quot;BinDeps&quot;]" data-from="[&quot;BinDeps&quot;,&quot;AbstractTrees&quot;]"><circle class="co2"/><text>Gumbo</text></g><g id="Nullables" transform="matrix(1 0 0 1 127.73 95.5874)" data-to="[&quot;HttpCommon&quot;,&quot;JSON&quot;]" data-from="[]"><circle class="co2"/><text>Nullables</text></g><g id="BufferedStreams" transform="matrix(1 0 0 1 174.601 116.51)" data-to="[&quot;Libz&quot;]" data-from="[&quot;BaseTestNext&quot;]"><circle class="co2"/><text>BufferedStreams</text></g><g id="AbstractTrees" transform="matrix(1 0 0 1 108.549 178.08)" data-to="[&quot;Gumbo&quot;]" data-from="[]"><circle class="co2"/><text>AbstractTrees</text></g><g id="Primes" transform="matrix(1 0 0 1 172.317 81.1433)" data-to="[&quot;DataStructures&quot;]" data-from="[&quot;DataStructures&quot;]"><circle class="co2"/><text>Primes</text></g><g id="SHA" transform="matrix(1 0 0 1 107.296 159.255)" data-to="[&quot;WinRPM&quot;,&quot;BinDeps&quot;]"><circle class="co2"/><text>SHA</text></g><g id="HttpServer" transform="matrix(1 0 0 1 76.5324 92.7838)" data-to="[&quot;HeadlessChromium&quot;,&quot;Mux&quot;,&quot;Blink&quot;,&quot;WebSockets&quot;]" data-from="[&quot;HttpParser&quot;,&quot;HttpCommon&quot;,&quot;Requests&quot;,&quot;MbedTLS&quot;,&quot;FactCheck&quot;]"><circle class="co2"/><text>HttpServer</text></g><g id="Libz" transform="matrix(1 0 0 1 151.242 124.343)" data-to="[&quot;WinRPM&quot;,&quot;Requests&quot;]" data-from="[&quot;BufferedStreams&quot;,&quot;BaseTestNext&quot;]"><circle class="co2"/><text>Libz</text></g><g id="HttpCommon" transform="matrix(1 0 0 1 94.1338 103.592)" data-to="[&quot;Mux&quot;,&quot;WebSockets&quot;,&quot;HttpParser&quot;,&quot;HttpServer&quot;,&quot;Requests&quot;]" data-from="[&quot;Nullables&quot;,&quot;URIParser&quot;]"><circle class="co2"/><text>HttpCommon</text></g><g id="MbedTLS" transform="matrix(1 0 0 1 81.1969 123.549)" data-to="[&quot;WebSockets&quot;,&quot;HttpServer&quot;,&quot;Requests&quot;]" data-from="[&quot;BinDeps&quot;,&quot;Homebrew&quot;]"><circle class="co2"/><text>MbedTLS</text></g><g id="URIParser" transform="matrix(1 0 0 1 99.7472 122.95)" data-to="[&quot;Mux&quot;,&quot;HttpCommon&quot;,&quot;WinRPM&quot;,&quot;Requests&quot;,&quot;BinDeps&quot;]"><circle class="co2"/><text>URIParser</text></g><g id="Cairo" transform="matrix(1 0 0 1 152.324 164.897)" data-to="[&quot;BinDeps&quot;]"><circle class="co2"/><text>Cairo</text></g><g id="OffsetArrays" transform="matrix(1 0 0 1 153.935 99.9021)" data-to="[&quot;JSON&quot;]" data-from="[]"><circle class="co2"/><text>OffsetArrays</text></g><g id="BaseTestNext" transform="matrix(1 0 0 1 169.063 143.104)" data-to="[&quot;BufferedStreams&quot;,&quot;Libz&quot;]"><circle class="co2"/><text>BaseTestNext</text></g><g id="WinRPM" transform="matrix(1 0 0 1 123.798 136.937)" data-to="[&quot;GSL&quot;,&quot;LibCURL&quot;]" data-from="[&quot;Libz&quot;,&quot;SHA&quot;,&quot;BinDeps&quot;,&quot;LibExpat&quot;,&quot;HTTPClient&quot;,&quot;URIParser&quot;]"><circle class="co2"/><text>WinRPM</text></g><g id="FixedPointNumbers" transform="matrix(1 0 0 1 140.004 42.3189)" data-to="[&quot;JSON&quot;]" data-from="[]"><circle class="co2"/><text>FixedPointNumbers</text></g><g id="Requests" transform="matrix(1 0 0 1 103.472 94.6169)" data-to="[&quot;Plotly&quot;,&quot;Mux&quot;,&quot;HttpServer&quot;]" data-from="[&quot;Libz&quot;,&quot;JSON&quot;,&quot;HttpParser&quot;,&quot;HttpCommon&quot;,&quot;Codecs&quot;,&quot;MbedTLS&quot;,&quot;URIParser&quot;]"><circle class="co2"/><text>Requests</text></g><g id="Homebrew" transform="matrix(1 0 0 1 71.8394 145.911)" data-to="[&quot;GSL&quot;,&quot;MbedTLS&quot;]" data-from="[&quot;JSON&quot;,&quot;BinDeps&quot;]"><circle class="co2"/><text>Homebrew</text></g><g id="FactCheck" transform="matrix(1 0 0 1 35.5589 128.134)" data-to="[&quot;Escher&quot;,&quot;HttpServer&quot;]" data-from="[]"><circle class="co2"/><text>FactCheck</text></g><g id="JSON" transform="matrix(1 0 0 1 118.06 78.2402)" data-to="[&quot;Plotly&quot;,&quot;HeadlessChromium&quot;,&quot;DataVoyager&quot;,&quot;D3Trees&quot;,&quot;Escher&quot;,&quot;Pages&quot;,&quot;Atom&quot;,&quot;PlotlyJS&quot;,&quot;HTTPClient&quot;,&quot;Blink&quot;,&quot;Requests&quot;,&quot;Homebrew&quot;]" data-from="[&quot;OffsetArrays&quot;,&quot;DataStructures&quot;,&quot;Nullables&quot;,&quot;FixedPointNumbers&quot;]"><circle class="co2"/><text>JSON</text></g><g id="BinDeps" transform="matrix(1 0 0 1 110.407 139.62)" data-to="[&quot;GSL&quot;,&quot;LibCURL&quot;,&quot;Blink&quot;,&quot;HttpParser&quot;,&quot;Gumbo&quot;,&quot;MbedTLS&quot;,&quot;WinRPM&quot;,&quot;Homebrew&quot;]" data-from="[&quot;SHA&quot;,&quot;HttpParser&quot;,&quot;Gumbo&quot;,&quot;Cairo&quot;,&quot;GSL&quot;,&quot;URIParser&quot;]"><circle class="co2"/><text>BinDeps</text></g><g id="DataStructures" transform="matrix(1 0 0 1 156.618 60.0564)" data-to="[&quot;Primes&quot;,&quot;JSON&quot;]" data-from="[&quot;Primes&quot;]"><circle class="co2"/><text>DataStructures</text></g></svg>